<svg xmlns="http://www.w3.org/2000/svg" width="64" height="64" viewBox="0 0 64 64" fill="none">
  <path d="M45.3333 47.9999C46.7478 47.9999 48.1043 48.5618 49.1045 49.562C50.1047 50.5622 50.6666 51.9188 50.6666 53.3333C50.6666 54.7477 50.1047 56.1043 49.1045 57.1045C48.1043 58.1047 46.7478 58.6666 45.3333 58.6666C43.9188 58.6666 42.5623 58.1047 41.5621 57.1045C40.5619 56.1043 40 54.7477 40 53.3333C40 50.3733 42.3733 47.9999 45.3333 47.9999ZM2.66663 5.33325H11.3866L13.8933 10.6666H53.3333C54.0405 10.6666 54.7188 10.9475 55.2189 11.4476C55.719 11.9477 56 12.626 56 13.3333C56 13.7866 55.8666 14.2399 55.68 14.6666L46.1333 31.9199C45.2266 33.5466 43.4666 34.6666 41.4666 34.6666H21.6L19.2 39.0133L19.12 39.3333C19.12 39.5101 19.1902 39.6796 19.3152 39.8047C19.4402 39.9297 19.6098 39.9999 19.7866 39.9999H50.6666V45.3333H18.6666C17.2521 45.3333 15.8956 44.7713 14.8954 43.7712C13.8952 42.771 13.3333 41.4144 13.3333 39.9999C13.3333 39.0666 13.5733 38.1866 13.9733 37.4399L17.6 30.9066L7.99996 10.6666H2.66663V5.33325ZM18.6666 47.9999C20.0811 47.9999 21.4377 48.5618 22.4379 49.562C23.4381 50.5622 24 51.9188 24 53.3333C24 54.7477 23.4381 56.1043 22.4379 57.1045C21.4377 58.1047 20.0811 58.6666 18.6666 58.6666C17.2521 58.6666 15.8956 58.1047 14.8954 57.1045C13.8952 56.1043 13.3333 54.7477 13.3333 53.3333C13.3333 50.3733 15.7066 47.9999 18.6666 47.9999ZM42.6666 29.3333L50.08 15.9999H16.3733L22.6666 29.3333H42.6666Z" fill="white"/>
</svg>