<svg xmlns="http://www.w3.org/2000/svg" width="34" height="34" viewBox="0 0 34 34" fill="none">
  <path d="M31.1667 0H2.83333C2.08189 0 1.36122 0.298511 0.829864 0.829864C0.298511 1.36122 0 2.08189 0 2.83333V31.1667C0 31.9181 0.298511 32.6388 0.829864 33.1701C1.36122 33.7015 2.08189 34 2.83333 34H31.1667C31.9181 34 32.6388 33.7015 33.1701 33.1701C33.7015 32.6388 34 31.9181 34 31.1667V2.83333C34 2.08189 33.7015 1.36122 33.1701 0.829864C32.6388 0.298511 31.9181 0 31.1667 0ZM26.9167 18.4167H18.4167V26.9167C18.4167 27.2924 18.2674 27.6527 18.0017 27.9184C17.7361 28.1841 17.3757 28.3333 17 28.3333C16.6243 28.3333 16.2639 28.1841 15.9983 27.9184C15.7326 27.6527 15.5833 27.2924 15.5833 26.9167V18.4167H7.08333C6.70761 18.4167 6.34728 18.2674 6.0816 18.0017C5.81592 17.7361 5.66667 17.3757 5.66667 17C5.66667 16.6243 5.81592 16.2639 6.0816 15.9983C6.34728 15.7326 6.70761 15.5833 7.08333 15.5833H15.5833V7.08333C15.5833 6.70761 15.7326 6.34728 15.9983 6.0816C16.2639 5.81592 16.6243 5.66667 17 5.66667C17.3757 5.66667 17.7361 5.81592 18.0017 6.0816C18.2674 6.34728 18.4167 6.70761 18.4167 7.08333V15.5833H26.9167C27.2924 15.5833 27.6527 15.7326 27.9184 15.9983C28.1841 16.2639 28.3333 16.6243 28.3333 17C28.3333 17.3757 28.1841 17.7361 27.9184 18.0017C27.6527 18.2674 27.2924 18.4167 26.9167 18.4167Z" fill="#0FA958"/>
</svg>