<svg xmlns="http://www.w3.org/2000/svg" width="40" height="32" viewBox="0 0 40 32" fill="none">
  <path fill-rule="evenodd" clip-rule="evenodd" d="M2.22222 27.4287H37.7778C38.3671 27.4287 38.9324 27.6695 39.3491 28.0982C39.7659 28.5268 40 29.1082 40 29.7144C40 30.3206 39.7659 30.902 39.3491 31.3307C38.9324 31.7593 38.3671 32.0001 37.7778 32.0001H2.22222C1.63285 32.0001 1.06762 31.7593 0.650874 31.3307C0.234126 30.902 0 30.3206 0 29.7144C0 29.1082 0.234126 28.5268 0.650874 28.0982C1.06762 27.6695 1.63285 27.4287 2.22222 27.4287ZM31.1111 4.57155H33.3333C34.5121 4.57155 35.6425 5.05318 36.476 5.91049C37.3095 6.7678 37.7778 7.93056 37.7778 9.14298C37.7778 10.3554 37.3095 11.5182 36.476 12.3755C35.6425 13.2328 34.5121 13.7144 33.3333 13.7144H31.1111L30.8889 13.7098C30.3775 16.2921 29.0142 18.6132 27.0299 20.2802C25.0455 21.9472 22.5621 22.8576 20 22.8573H15.5556C12.6087 22.8573 9.78255 21.6532 7.69881 19.5099C5.61508 17.3666 4.44444 14.4597 4.44444 11.4287V4.57155C4.44444 3.35913 4.9127 2.19637 5.74619 1.33906C6.57969 0.481753 7.71015 0.00012207 8.88889 0.00012207H26.6667C27.8454 0.00012207 28.9759 0.481753 29.8094 1.33906C30.6429 2.19637 31.1111 3.35913 31.1111 4.57155ZM8.88889 4.57155V11.4287C8.88889 13.2473 9.59127 14.9915 10.8415 16.2774C12.0918 17.5634 13.7874 18.2858 15.5556 18.2858H20C21.7681 18.2858 23.4638 17.5634 24.714 16.2774C25.9643 14.9915 26.6667 13.2473 26.6667 11.4287V4.57155H8.88889Z" fill="#D27C2C"/>
</svg>